<svg xmlns="http://www.w3.org/2000/svg" version="1.1" xmlns:xlink="http://www.w3.org/1999/xlink" xmlns:svgjs="http://svgjs.dev/svgjs" width="1000" height="1125" viewBox="0 0 1000 1125"><g transform="matrix(1,0,0,1,0,0)"><svg viewBox="0 0 320 360" data-background-color="#33007d" preserveAspectRatio="xMidYMid meet" height="1125" width="1000" xmlns="http://www.w3.org/2000/svg" xmlns:xlink="http://www.w3.org/1999/xlink"><g id="tight-bounds" transform="matrix(1,0,0,1,0,0)"><svg viewBox="0 0 320 360" height="360" width="320"><rect width="320" height="360" fill="url(#e0da6092-bccf-4df7-98af-42193addadbe)" mask="url(#24a5e302-3c03-4fb0-b4f4-81dc821fba81)" data-fill-palette-color="tertiary"></rect><g><svg></svg></g><g><svg viewBox="0 0 320 360" height="360" width="320"><g><path xmlns="http://www.w3.org/2000/svg" d="M297.491 100.645c-12.426-21.51-112.674-79.355-137.491-79.355-24.817 0-125.028 57.845-137.491 79.355-11.591 20.02-11.591 138.726 0 158.746 12.463 21.474 112.674 79.319 137.491 79.319 24.817 0 125.064-57.845 137.491-79.355 11.591-20.02 11.591-138.69 0-158.71zM309.481 93.705c-14.461-24.998-119.469-86.295-149.481-86.295-30.012 0-135.02 61.297-149.481 86.295-14.025 24.199-14.025 148.391 0 172.59 14.461 24.998 119.469 86.295 149.481 86.295 30.012 0 135.02-61.297 149.481-86.259 14.025-24.235 14.025-148.427 0-172.626zM300.906 261.353c-12.753 22.055-115.472 81.317-140.906 81.318-25.434 0-128.153-59.298-140.906-81.354-11.881-20.529-11.881-142.178 0-162.707 12.753-22.019 115.472-81.281 140.906-81.281 25.434 0 128.153 59.298 140.906 81.318 11.881 20.529 11.881 142.178 0 162.706z" fill="url(#e0da6092-bccf-4df7-98af-42193addadbe)" fill-rule="nonzero" stroke="none" stroke-width="1" stroke-linecap="butt" stroke-linejoin="miter" stroke-miterlimit="10" stroke-dasharray="" stroke-dashoffset="0" font-family="none" font-weight="none" font-size="none" text-anchor="none" style="mix-blend-mode: normal" data-fill-palette-color="tertiary"></path></g><g transform="matrix(1,0,0,1,110.0407318339042,90)"><svg viewBox="0 0 99.91853633219161 180" height="180" width="99.91853633219161"><g><svg viewBox="0 0 225.11999999999998 405.546372950069" height="180" width="99.91853633219161"><g></g><g></g><g transform="matrix(1,0,0,1,0.5599999999999881,254.92568329489654)"><svg viewBox="0 0 224 150.6206896551724" height="150.6206896551724" width="224"><g id="textblocktransform"><svg viewBox="0 0 224 150.6206896551724" height="150.6206896551724" width="224" id="textblock"><g><svg viewBox="0 0 224 150.6206896551724" height="150.6206896551724" width="224"><g transform="matrix(1,0,0,1,0,0)"><svg width="224" viewBox="0.75 -34.75 52.20000076293945 35.099998474121094" height="150.6206896551724" data-palette-color="#33007d"><path d="M23.2-34.75L29.5-34.75 18-12.6 18 0 12.3 0 12.3-12.6 0.75-34.75 7.1-34.75 15.15-17.7 23.2-34.75ZM47.2-34.75L52.95-34.75 52.95-9.7Q52.95-5.05 50.12-2.35 47.3 0.35 42.7 0.35L42.7 0.35Q38.1 0.35 35.27-2.35 32.45-5.05 32.45-9.7L32.45-9.7 38.2-9.7Q38.25-7.4 39.37-6.05 40.5-4.7 42.7-4.7L42.7-4.7Q44.9-4.7 46.05-6.08 47.2-7.45 47.2-9.7L47.2-9.7 47.2-34.75Z" opacity="1" transform="matrix(1,0,0,1,0,0)" fill="#33007d" class="wordmark-text-0" data-fill-palette-color="quaternary" id="text-0"></path></svg></g></svg></g></svg></g></svg></g><g transform="matrix(1,0,0,1,43.343999999999994,0)"><svg viewBox="0 0 138.432 138.8646" height="138.8646" width="138.432"><g><svg xmlns="http://www.w3.org/2000/svg" xmlns:xlink="http://www.w3.org/1999/xlink" version="1.1" x="0" y="0" viewBox="10 9.75 80 80.25" enable-background="new 0 0 100 100" xml:space="preserve" height="138.8646" width="138.432" class="icon-icon-0" data-fill-palette-color="quaternary" id="icon-0"><path d="M51.36 20.746c0 2.123-0.073 2.831-0.543 3.393-0.918 1.095-2.265-0.677-5.063-0.677-3.097 0-5.608 2.51-5.608 5.607 0 3.097 2.51 5.608 5.606 5.608 2.8 0 4.146-1.771 5.064-0.677 0.47 0.562 0.543 1.27 0.543 3.393v10.995 0.001-0.001l9.358 0.001c1.372 0 1.565-0.132 1.68-0.397 0.235-0.544-0.246-1.431-0.246-3.475 0-4.306 4.544-7.743 8.531-7.743 3.983 0 8.524 3.263 8.524 7.743 0 2.043-0.482 2.93-0.247 3.475 0.115 0.263 0.31 0.397 1.682 0.397l9.357 0V9.75H51.36l0 0V20.746z" fill="#33007d" data-fill-palette-color="quaternary"></path><path d="M20.996 48.39c2.122 0 2.83 0.073 3.393 0.543 1.095 0.918-0.677 2.265-0.677 5.063 0 3.097 2.51 5.608 5.607 5.608 3.097 0 5.607-2.51 5.607-5.606 0-2.8-1.771-4.146-0.677-5.064 0.563-0.47 1.271-0.543 3.393-0.543h10.994 0.002-0.002l0.002-9.358c0-1.372-0.133-1.565-0.398-1.68-0.544-0.235-1.431 0.246-3.475 0.246-4.306 0-7.742-4.544-7.742-8.531 0-3.983 3.262-8.524 7.742-8.524 2.043 0 2.93 0.482 3.475 0.247 0.263-0.115 0.397-0.31 0.397-1.682L48.637 9.75H10v38.64l0 0H20.996z" fill="#33007d" data-fill-palette-color="quaternary"></path><path d="M48.64 79.004c0-2.121 0.073-2.83 0.543-3.393 0.918-1.094 2.264 0.678 5.063 0.678 3.096 0 5.607-2.51 5.607-5.607s-2.51-5.607-5.605-5.607c-2.801 0-4.147 1.771-5.065 0.676-0.47-0.563-0.543-1.27-0.543-3.393V51.363v-0.002 0.002l-9.358-0.002c-1.372 0-1.565 0.133-1.68 0.398-0.235 0.545 0.246 1.432 0.246 3.475 0 4.307-4.544 7.742-8.531 7.742-3.983 0-8.524-3.262-8.524-7.742 0-2.043 0.482-2.93 0.247-3.475-0.115-0.262-0.31-0.396-1.682-0.396H10V90h38.64l0 0V79.004z" fill="#33007d" data-fill-palette-color="quaternary"></path><path d="M79.004 51.359c-2.122 0-2.83-0.072-3.393-0.543-1.095-0.917 0.677-2.264 0.677-5.062 0-3.097-2.51-5.608-5.607-5.608-3.097 0-5.607 2.51-5.607 5.606 0 2.8 1.771 4.146 0.677 5.064-0.563 0.471-1.271 0.543-3.393 0.543H51.363h-0.002 0.002l-0.002 9.359c0 1.371 0.133 1.564 0.398 1.68 0.544 0.234 1.431-0.246 3.475-0.246 4.306 0 7.742 4.543 7.742 8.531 0 3.983-3.262 8.524-7.742 8.524-2.043 0-2.93-0.482-3.475-0.247-0.263 0.115-0.397 0.31-0.397 1.682L51.363 90H90V51.359l0 0H79.004z" fill="#33007d" data-fill-palette-color="quaternary"></path></svg></g></svg></g><g></g></svg></g></svg></g></svg></g><defs></defs><mask id="64eaf9ae-cd67-4ce0-85a0-3943d76de9b8"><g id="SvgjsG2844"><svg viewBox="0 0 320 360" height="360" width="320"><g><svg></svg></g><g><svg viewBox="0 0 320 360" height="360" width="320"><g></g><g transform="matrix(1,0,0,1,110.0407318339042,90)"><svg viewBox="0 0 99.91853633219161 180" height="180" width="99.91853633219161"><g><svg viewBox="0 0 225.11999999999998 405.546372950069" height="180" width="99.91853633219161"><g><rect width="225.11999999999998" height="13.583129233655175" x="0" y="174.4225299310345" fill="white" opacity="1" stroke-width="0" stroke="transparent" fill-opacity="1" class="rect-o-0" rx="1%" id="SvgjsRect2843" data-palette-color="url(#5bfee4f4-1bab-4d3d-94d5-d5d97e5db5f2)"></rect></g><g><rect width="225.11999999999998" height="13.583129233655175" x="0" y="205.78462413020688" fill="white" opacity="1" stroke-width="0" stroke="transparent" fill-opacity="1" class="rect-o-1" rx="1%" id="SvgjsRect2842" data-palette-color="url(#5bfee4f4-1bab-4d3d-94d5-d5d97e5db5f2)"></rect></g><g transform="matrix(1,0,0,1,0.5599999999999881,254.92568329489654)"><svg viewBox="0 0 224 150.6206896551724" height="150.6206896551724" width="224"><g id="SvgjsG2841"><svg viewBox="0 0 224 150.6206896551724" height="150.6206896551724" width="224" id="SvgjsSvg2840"><g><svg viewBox="0 0 224 150.6206896551724" height="150.6206896551724" width="224"><g transform="matrix(1,0,0,1,0,0)"><svg width="224" viewBox="0.75 -34.75 52.20000076293945 35.099998474121094" height="150.6206896551724" data-palette-color="#33007d"></svg></g></svg></g></svg></g></svg></g><g transform="matrix(1,0,0,1,43.343999999999994,0)"><svg viewBox="0 0 138.432 138.8646" height="138.8646" width="138.432"><g><svg xmlns="http://www.w3.org/2000/svg" xmlns:xlink="http://www.w3.org/1999/xlink" version="1.1" x="0" y="0" viewBox="10 9.75 80 80.25" enable-background="new 0 0 100 100" xml:space="preserve" height="138.8646" width="138.432" class="icon-icon-0" data-fill-palette-color="quaternary" id="SvgjsSvg2838"></svg></g></svg></g><g></g></svg></g></svg></g></svg></g><defs><mask></mask></defs></svg></g></mask><linearGradient x1="0" x2="1" y1="0.578" y2="0.595" id="5bfee4f4-1bab-4d3d-94d5-d5d97e5db5f2"><stop stop-color="#6ee2f5" offset="0"></stop><stop stop-color="#6454f0" offset="1"></stop></linearGradient><rect width="320" height="360" fill="url(#5bfee4f4-1bab-4d3d-94d5-d5d97e5db5f2)" mask="url(#64eaf9ae-cd67-4ce0-85a0-3943d76de9b8)" data-fill-palette-color="primary"></rect><mask id="24a5e302-3c03-4fb0-b4f4-81dc821fba81"><g id="SvgjsG2867"><svg viewBox="0 0 320 360" height="360" width="320"><g><svg></svg></g><g><svg viewBox="0 0 320 360" height="360" width="320"><g><path xmlns="http://www.w3.org/2000/svg" d="M297.491 100.645c-12.426-21.51-112.674-79.355-137.491-79.355-24.817 0-125.028 57.845-137.491 79.355-11.591 20.02-11.591 138.726 0 158.746 12.463 21.474 112.674 79.319 137.491 79.319 24.817 0 125.064-57.845 137.491-79.355 11.591-20.02 11.591-138.69 0-158.71zM309.481 93.705c-14.461-24.998-119.469-86.295-149.481-86.295-30.012 0-135.02 61.297-149.481 86.295-14.025 24.199-14.025 148.391 0 172.59 14.461 24.998 119.469 86.295 149.481 86.295 30.012 0 135.02-61.297 149.481-86.259 14.025-24.235 14.025-148.427 0-172.626zM300.906 261.353c-12.753 22.055-115.472 81.317-140.906 81.318-25.434 0-128.153-59.298-140.906-81.354-11.881-20.529-11.881-142.178 0-162.707 12.753-22.019 115.472-81.281 140.906-81.281 25.434 0 128.153 59.298 140.906 81.318 11.881 20.529 11.881 142.178 0 162.706z" fill="white" fill-rule="nonzero" stroke="none" stroke-width="1" stroke-linecap="butt" stroke-linejoin="miter" stroke-miterlimit="10" stroke-dasharray="" stroke-dashoffset="0" font-family="none" font-weight="none" font-size="none" text-anchor="none" style="mix-blend-mode: normal"></path></g><g transform="matrix(1,0,0,1,110.0407318339042,90)"><svg viewBox="0 0 99.91853633219161 180" height="180" width="99.91853633219161"><g><svg viewBox="0 0 225.11999999999998 405.546372950069" height="180" width="99.91853633219161"><g></g><g></g><g transform="matrix(1,0,0,1,0.5599999999999881,254.92568329489654)"><svg viewBox="0 0 224 150.6206896551724" height="150.6206896551724" width="224"><g id="SvgjsG2866"><svg viewBox="0 0 224 150.6206896551724" height="150.6206896551724" width="224" id="SvgjsSvg2865"><g><svg viewBox="0 0 224 150.6206896551724" height="150.6206896551724" width="224"><g transform="matrix(1,0,0,1,0,0)"><svg width="224" viewBox="0.75 -34.75 52.20000076293945 35.099998474121094" height="150.6206896551724" data-palette-color="#33007d"></svg></g></svg></g></svg></g></svg></g><g transform="matrix(1,0,0,1,43.343999999999994,0)"><svg viewBox="0 0 138.432 138.8646" height="138.8646" width="138.432"><g><svg xmlns="http://www.w3.org/2000/svg" xmlns:xlink="http://www.w3.org/1999/xlink" version="1.1" x="0" y="0" viewBox="10 9.75 80 80.25" enable-background="new 0 0 100 100" xml:space="preserve" height="138.8646" width="138.432" class="icon-icon-0" data-fill-palette-color="quaternary" id="SvgjsSvg2863"></svg></g></svg></g><g></g></svg></g></svg></g></svg></g><defs><mask></mask></defs><mask><g id="SvgjsG2862"><svg viewBox="0 0 320 360" height="360" width="320"><g><svg></svg></g><g><svg viewBox="0 0 320 360" height="360" width="320"><g></g><g transform="matrix(1,0,0,1,110.0407318339042,90)"><svg viewBox="0 0 99.91853633219161 180" height="180" width="99.91853633219161"><g><svg viewBox="0 0 225.11999999999998 405.546372950069" height="180" width="99.91853633219161"><g></g><g></g><g transform="matrix(1,0,0,1,0.5599999999999881,254.92568329489654)"><svg viewBox="0 0 224 150.6206896551724" height="150.6206896551724" width="224"><g id="SvgjsG2859"><svg viewBox="0 0 224 150.6206896551724" height="150.6206896551724" width="224" id="SvgjsSvg2858"><g><svg viewBox="0 0 224 150.6206896551724" height="150.6206896551724" width="224"><g transform="matrix(1,0,0,1,0,0)"><svg width="224" viewBox="0.75 -34.75 52.20000076293945 35.099998474121094" height="150.6206896551724" data-palette-color="#33007d"></svg></g></svg></g></svg></g></svg></g><g transform="matrix(1,0,0,1,43.343999999999994,0)"><svg viewBox="0 0 138.432 138.8646" height="138.8646" width="138.432"><g><svg xmlns="http://www.w3.org/2000/svg" xmlns:xlink="http://www.w3.org/1999/xlink" version="1.1" x="0" y="0" viewBox="10 9.75 80 80.25" enable-background="new 0 0 100 100" xml:space="preserve" height="138.8646" width="138.432" class="icon-icon-0" data-fill-palette-color="quaternary" id="SvgjsSvg2857"></svg></g></svg></g><g></g></svg></g></svg></g></svg></g><defs><mask></mask></defs></svg></g></mask></svg></g></mask><linearGradient x1="0" x2="1" y1="0.578" y2="0.595" id="e0da6092-bccf-4df7-98af-42193addadbe"><stop stop-color="#6ee2f5" offset="0"></stop><stop stop-color="#6454f0" offset="1"></stop></linearGradient></svg><rect width="320" height="360" fill="none" stroke="none" visibility="hidden"></rect></g></svg></g></svg>